<?xml version="1.0" encoding="utf-8"?>
<!-- Generator: Adobe Illustrator 23.0.1, SVG Export Plug-In . SVG Version: 6.00 Build 0)  -->
<svg version="1.1" id="Layer_1" xmlns="http://www.w3.org/2000/svg" xmlns:xlink="http://www.w3.org/1999/xlink" x="0px" y="0px"
	 viewBox="0 0 70 49" style="enable-background:new 0 0 70 49;" xml:space="preserve">
<style type="text/css">
	.st0{fill:#333333;}
</style>
<path class="st0" d="M48.9,6.5L48.9,6.5c-2.6,0-4.9,1.5-6,3.7l-9,17.4c-1-1.8-2.6-3.2-4.5-4c2.2-1.6,3.6-4.1,3.6-7
	c0-3.3-1.9-6.2-4.7-7.6c-2.4-1.3-5.2-2-8.2-2H6.6c-2.8,0-5,2.2-5,5v25.1c0,2.8,2.2,5,5,5h4.9h9.7c2.8,0,5.5-0.6,7.9-1.6l0.9-0.4
	c0.1,0,0.1-0.1,0.2-0.1c0.9,1.5,2.5,2.4,4.3,2.4c2,0,3.8-1.2,4.6-2.9c0.4-0.9,1.3-1.6,2.3-1.6h15.1c1,0,1.9,0.7,2.3,1.6
	c0.8,1.7,2.5,2.9,4.6,2.9c2.8,0,5-2.2,5-5c0-0.9-0.2-1.7-0.6-2.5L54.9,10.2C53.8,8,51.6,6.5,48.9,6.5L48.9,6.5z"/>
</svg>
