<?xml version="1.0" encoding="utf-8"?>
<!-- Generator: Adobe Illustrator 23.0.1, SVG Export Plug-In . SVG Version: 6.00 Build 0)  -->
<svg version="1.1" id="Layer_1" xmlns="http://www.w3.org/2000/svg" xmlns:xlink="http://www.w3.org/1999/xlink" x="0px" y="0px"
	 viewBox="0 0 260 260" style="enable-background:new 0 0 260 260;" xml:space="preserve">
<style type="text/css">
	.st0{fill:#434343;}
</style>
<path class="st0" d="M183.202,61.429h-0.015c-10.022,0-18.665,5.742-22.888,14.129l-34.425,66.512
	c-3.855-6.839-9.976-12.213-17.372-15.101c8.26-5.969,13.633-15.706,13.633-26.681c0-12.721-7.221-23.746-17.793-29.204
	c-9.308-4.901-19.935-7.659-31.201-7.659H21.659c-10.589,0-19.144,8.552-19.144,19.126v95.815c0,10.56,8.556,19.126,19.144,19.126
	h18.587H77.34c10.73,0,20.946-2.22,30.218-6.187l3.531-1.711c0.202-0.093,0.392-0.194,0.583-0.298
	c3.341,5.546,9.413,9.275,16.378,9.275c7.742,0,14.423-4.594,17.426-11.23c1.504-3.502,4.883-5.98,8.881-6.173h57.691
	c4.002,0.193,7.373,2.67,8.877,6.173c2.999,6.636,9.688,11.23,17.428,11.23c10.585,0,19.132-8.574,19.132-19.114
	c0-3.43-0.885-6.641-2.478-9.408l-48.899-94.492c-4.223-8.387-12.866-14.129-22.896-14.129H183.202z"/>
</svg>
