<?xml version="1.0" encoding="utf-8"?>
<!-- Generator: Adobe Illustrator 23.0.1, SVG Export Plug-In . SVG Version: 6.00 Build 0)  -->
<svg version="1.1" id="Layer_1" xmlns="http://www.w3.org/2000/svg" xmlns:xlink="http://www.w3.org/1999/xlink" x="0px" y="0px"
	 viewBox="0 0 200 200" style="enable-background:new 0 0 200 200;" xml:space="preserve">
<style type="text/css">
	.st0{fill-rule:evenodd;clip-rule:evenodd;fill:#333333;}
	.st1{fill:#333333;}
</style>
<g>
	<path class="st0" d="M121.799,80.339c-25.598,0-46.35,20.752-46.35,46.35c0,22.785,16.442,41.73,38.11,45.617
		c-0.219,9.107-2.281,18.984-6.467,27.396c8.676-9.322,14.528-17.505,18.206-26.796c23.963-1.788,42.849-21.798,42.849-46.217
		C168.148,101.091,147.396,80.339,121.799,80.339z M144.541,135.061c-12.042,16.137-22.397,19.989-22.397,19.989
		s-10.358-3.853-22.398-19.989c-19.102-25.595,16.337-34.03,22.398-18.064C128.204,101.032,163.641,109.466,144.541,135.061z"/>
	<path class="st1" d="M60.381,0.298C27.033,0.298,0,27.333,0,60.682c0,29.683,21.42,54.363,49.646,59.429
		c-0.286,11.866-2.972,24.73-8.424,35.693c11.304-12.147,18.925-22.807,23.718-34.913c31.219-2.33,55.822-28.395,55.822-60.21
		C120.762,27.333,93.729,0.298,60.381,0.298z M67.976,84.899c-5.66,0-10.273-3.116-10.273-6.94c0-3.823,4.614-6.943,10.273-6.943
		c1.899,0,3.676,0.361,5.204,0.969V45.256l-22.35,6.518V87.43v0.002c0,3.823-4.615,6.942-10.273,6.942
		c-5.66,0-10.273-3.119-10.273-6.942c0-3.824,4.614-6.942,10.273-6.942c1.9,0,3.677,0.358,5.206,0.969V53.254v-5.987v-8.435
		l32.484-9.472v8.434v5.985v34.17c0,0.004,0.003,0.006,0.003,0.01C78.249,81.783,73.634,84.899,67.976,84.899z"/>
	<g>
		<path class="st0" d="M186.194,2.89h-64.429c-7.593,0-13.806,6.212-13.806,13.804v64.43c0,7.593,6.213,13.806,13.806,13.806h40.364
			c3.654,11.347,10.093,20.806,20.315,31.787c-4.862-9.775-6.962-21.459-6.707-31.787h10.456c7.592,0,13.806-6.213,13.806-13.806
			v-64.43C200,9.101,193.786,2.89,186.194,2.89z M154.064,70.505c-13.594,0-24.679-11.087-24.679-24.678
			c0-13.593,11.085-24.68,24.679-24.68c13.591,0,24.678,11.088,24.678,24.68C178.742,59.418,167.656,70.505,154.064,70.505z"/>
		<path class="st0" d="M145.833,44.749c1.812,0,3.291-2.464,3.291-5.484c0-3.018-1.479-5.484-3.291-5.484
			c-1.813,0-3.29,2.466-3.29,5.484C142.543,42.285,144.02,44.749,145.833,44.749z"/>
		<path class="st0" d="M162.296,44.749c1.811,0,3.289-2.464,3.289-5.484c0-3.018-1.479-5.484-3.289-5.484
			c-1.813,0-3.292,2.466-3.292,5.484C159.004,42.285,160.482,44.749,162.296,44.749z"/>
		<path class="st0" d="M139.754,51.307c4.69,13.856,23.694,14.086,28.617,0C163.032,54.318,144.41,54.394,139.754,51.307z"/>
	</g>
</g>
</svg>
