<?xml version="1.0" standalone="no"?>
<!DOCTYPE svg PUBLIC "-//W3C//DTD SVG 20010904//EN"
 "http://www.w3.org/TR/2001/REC-SVG-20010904/DTD/svg10.dtd">
<svg version="1.0" xmlns="http://www.w3.org/2000/svg"
 width="700.000000pt" height="700.000000pt" viewBox="0 0 700.000000 700.000000"
 preserveAspectRatio="xMidYMid meet">
<metadata>
Created by potrace 1.14, written by Peter Selinger 2001-2017
</metadata>
<g transform="translate(0.000000,700.000000) scale(0.100000,-0.100000)"
fill="#000000" stroke="none">
<path d="M4767 5323 c-131 -33 -226 -86 -319 -178 -77 -74 -99 -112 -283 -470
-54 -104 -119 -230 -145 -280 -26 -49 -98 -189 -160 -310 -62 -121 -130 -251
-150 -290 -49 -92 -268 -518 -295 -572 -11 -24 -22 -42 -25 -42 -3 0 -21 25
-40 55 -38 61 -130 159 -200 216 -53 42 -185 118 -206 118 -8 0 -14 2 -14 5 0
3 38 43 84 88 138 136 226 296 261 482 22 113 6 346 -30 430 -7 17 -20 48 -28
71 -42 112 -153 257 -264 345 -166 132 -502 260 -743 285 -30 3 -63 8 -73 10
-26 8 -1584 7 -1636 -1 -96 -14 -232 -85 -292 -152 -70 -79 -123 -188 -135
-276 -3 -23 -5 -644 -6 -1379 0 -1018 3 -1350 12 -1390 46 -197 215 -361 407
-396 55 -10 1768 -9 1813 1 14 3 49 8 79 11 29 4 56 8 60 10 3 2 22 7 41 10
123 19 324 83 449 142 l75 35 25 -33 c106 -136 248 -209 411 -211 200 -2 374
103 469 284 54 103 120 159 206 175 53 10 1578 9 1630 0 94 -18 154 -68 211
-176 170 -325 603 -382 845 -112 90 100 129 211 125 351 -4 150 26 78 -311
726 -34 66 -111 215 -170 330 -59 116 -129 251 -155 300 -68 129 -163 313
-270 520 -51 99 -121 234 -155 300 -34 66 -104 201 -155 300 -187 363 -206
396 -270 468 -165 183 -428 262 -673 200z"/>
</g>
</svg>
